<mxfile host="app.diagrams.net" modified="2024-02-02T10:17:47.902Z" agent="Mozilla/5.0 (Windows NT 10.0; Win64; x64) AppleWebKit/537.36 (KHTML, like Gecko) Chrome/121.0.0.0 Safari/537.36" etag="WnM4_Fj_ad0eJDkjmL2P" version="23.1.1" type="github">
  <diagram name="Page-1" id="imfpy0Pov8flkuBBiqmy">
    <mxGraphModel dx="794" dy="454" grid="1" gridSize="10" guides="1" tooltips="1" connect="1" arrows="1" fold="1" page="1" pageScale="1" pageWidth="850" pageHeight="1100" math="0" shadow="0">
      <root>
        <mxCell id="0" />
        <mxCell id="1" parent="0" />
        <mxCell id="nZtmwKzg-fRjrrjrNqXi-2" value="" style="rounded=0;whiteSpace=wrap;html=1;dashed=1;" parent="1" vertex="1">
          <mxGeometry x="474" y="147" width="90" height="142" as="geometry" />
        </mxCell>
        <mxCell id="v5AI_yrHXNZjAFn2bGB4-1" value="" style="rounded=0;whiteSpace=wrap;html=1;dashed=1;" parent="1" vertex="1">
          <mxGeometry x="577" y="41.5" width="90" height="156.5" as="geometry" />
        </mxCell>
        <mxCell id="o5u9xkLmA_ON-qVbJsRd-68" value="" style="rounded=0;whiteSpace=wrap;html=1;dashed=1;" parent="1" vertex="1">
          <mxGeometry x="358" y="42.5" width="100" height="326.5" as="geometry" />
        </mxCell>
        <mxCell id="o5u9xkLmA_ON-qVbJsRd-3" value="" style="image;sketch=0;aspect=fixed;html=1;points=[];align=center;fontSize=12;image=img/lib/mscae/App_Service_Mobile_App.svg;" parent="1" vertex="1">
          <mxGeometry x="76" y="129" width="34" height="50" as="geometry" />
        </mxCell>
        <mxCell id="o5u9xkLmA_ON-qVbJsRd-4" value="" style="verticalLabelPosition=bottom;html=1;verticalAlign=top;align=center;strokeColor=none;fillColor=#00BEF2;shape=mxgraph.azure.website_generic;pointerEvents=1;" parent="1" vertex="1">
          <mxGeometry x="68" y="239" width="50" height="42.5" as="geometry" />
        </mxCell>
        <mxCell id="o5u9xkLmA_ON-qVbJsRd-5" value="" style="sketch=0;points=[[0,0,0],[0.25,0,0],[0.5,0,0],[0.75,0,0],[1,0,0],[0,1,0],[0.25,1,0],[0.5,1,0],[0.75,1,0],[1,1,0],[0,0.25,0],[0,0.5,0],[0,0.75,0],[1,0.25,0],[1,0.5,0],[1,0.75,0]];outlineConnect=0;fontColor=#232F3E;fillColor=#E7157B;strokeColor=#ffffff;dashed=0;verticalLabelPosition=bottom;verticalAlign=top;align=center;html=1;fontSize=12;fontStyle=0;aspect=fixed;shape=mxgraph.aws4.resourceIcon;resIcon=mxgraph.aws4.api_gateway;" parent="1" vertex="1">
          <mxGeometry x="218" y="178" width="60" height="60" as="geometry" />
        </mxCell>
        <mxCell id="o5u9xkLmA_ON-qVbJsRd-35" value="" style="rounded=0;whiteSpace=wrap;html=1;" parent="1" vertex="1">
          <mxGeometry x="384" y="242" width="50" height="87" as="geometry" />
        </mxCell>
        <mxCell id="o5u9xkLmA_ON-qVbJsRd-36" value="" style="sketch=0;outlineConnect=0;fontColor=#ffffff;fillColor=#1ba1e2;strokeColor=#006EAF;dashed=0;verticalLabelPosition=bottom;verticalAlign=top;align=center;html=1;fontSize=12;fontStyle=0;aspect=fixed;pointerEvents=1;shape=mxgraph.aws4.ec2_aws_microservice_extractor_for_net;" parent="1" vertex="1">
          <mxGeometry x="392.5" y="250" width="33" height="33" as="geometry" />
        </mxCell>
        <mxCell id="o5u9xkLmA_ON-qVbJsRd-37" value="" style="sketch=0;outlineConnect=0;fontColor=#ffffff;fillColor=#1ba1e2;strokeColor=#006EAF;dashed=0;verticalLabelPosition=bottom;verticalAlign=top;align=center;html=1;fontSize=12;fontStyle=0;aspect=fixed;pointerEvents=1;shape=mxgraph.aws4.ec2_aws_microservice_extractor_for_net;" parent="1" vertex="1">
          <mxGeometry x="392.5" y="286" width="33" height="33" as="geometry" />
        </mxCell>
        <mxCell id="o5u9xkLmA_ON-qVbJsRd-38" value="SkyPlus/App Services" style="text;html=1;strokeColor=none;fillColor=none;align=center;verticalAlign=middle;whiteSpace=wrap;rounded=0;fontSize=8;" parent="1" vertex="1">
          <mxGeometry x="379" y="45" width="60" height="30" as="geometry" />
        </mxCell>
        <mxCell id="o5u9xkLmA_ON-qVbJsRd-39" value="LMS Services" style="text;html=1;strokeColor=none;fillColor=none;align=center;verticalAlign=middle;whiteSpace=wrap;rounded=0;fontSize=8;" parent="1" vertex="1">
          <mxGeometry x="379" y="326" width="60" height="30" as="geometry" />
        </mxCell>
        <mxCell id="o5u9xkLmA_ON-qVbJsRd-40" value="" style="rounded=0;whiteSpace=wrap;html=1;" parent="1" vertex="1">
          <mxGeometry x="384" y="72" width="50" height="86" as="geometry" />
        </mxCell>
        <mxCell id="o5u9xkLmA_ON-qVbJsRd-41" value="" style="sketch=0;outlineConnect=0;fontColor=#ffffff;fillColor=#60a917;strokeColor=#2D7600;dashed=0;verticalLabelPosition=bottom;verticalAlign=top;align=center;html=1;fontSize=12;fontStyle=0;aspect=fixed;pointerEvents=1;shape=mxgraph.aws4.ec2_aws_microservice_extractor_for_net;" parent="1" vertex="1">
          <mxGeometry x="392.5" y="80" width="33" height="33" as="geometry" />
        </mxCell>
        <mxCell id="o5u9xkLmA_ON-qVbJsRd-42" value="" style="sketch=0;outlineConnect=0;fontColor=#ffffff;fillColor=#60a917;strokeColor=#2D7600;dashed=0;verticalLabelPosition=bottom;verticalAlign=top;align=center;html=1;fontSize=12;fontStyle=0;aspect=fixed;pointerEvents=1;shape=mxgraph.aws4.ec2_aws_microservice_extractor_for_net;" parent="1" vertex="1">
          <mxGeometry x="392.5" y="116" width="33" height="33" as="geometry" />
        </mxCell>
        <mxCell id="o5u9xkLmA_ON-qVbJsRd-43" value="" style="rounded=0;whiteSpace=wrap;html=1;" parent="1" vertex="1">
          <mxGeometry x="596" y="70" width="50" height="86" as="geometry" />
        </mxCell>
        <mxCell id="o5u9xkLmA_ON-qVbJsRd-44" value="" style="sketch=0;outlineConnect=0;fontColor=#ffffff;fillColor=#a20025;strokeColor=#6F0000;dashed=0;verticalLabelPosition=bottom;verticalAlign=top;align=center;html=1;fontSize=12;fontStyle=0;aspect=fixed;pointerEvents=1;shape=mxgraph.aws4.ec2_aws_microservice_extractor_for_net;" parent="1" vertex="1">
          <mxGeometry x="603.5" y="78" width="33" height="33" as="geometry" />
        </mxCell>
        <mxCell id="o5u9xkLmA_ON-qVbJsRd-45" value="" style="sketch=0;outlineConnect=0;fontColor=#ffffff;fillColor=#a20025;strokeColor=#6F0000;dashed=0;verticalLabelPosition=bottom;verticalAlign=top;align=center;html=1;fontSize=12;fontStyle=0;aspect=fixed;pointerEvents=1;shape=mxgraph.aws4.ec2_aws_microservice_extractor_for_net;" parent="1" vertex="1">
          <mxGeometry x="603.5" y="114" width="33" height="33" as="geometry" />
        </mxCell>
        <mxCell id="o5u9xkLmA_ON-qVbJsRd-46" value="Navitaire" style="text;html=1;strokeColor=none;fillColor=none;align=center;verticalAlign=middle;whiteSpace=wrap;rounded=0;fontSize=8;" parent="1" vertex="1">
          <mxGeometry x="590" y="43" width="60" height="30" as="geometry" />
        </mxCell>
        <mxCell id="o5u9xkLmA_ON-qVbJsRd-47" value="" style="rounded=0;whiteSpace=wrap;html=1;" parent="1" vertex="1">
          <mxGeometry x="494" y="165" width="50" height="87" as="geometry" />
        </mxCell>
        <mxCell id="o5u9xkLmA_ON-qVbJsRd-48" value="" style="sketch=0;outlineConnect=0;fontColor=#000000;fillColor=#e3c800;strokeColor=#B09500;dashed=0;verticalLabelPosition=bottom;verticalAlign=top;align=center;html=1;fontSize=12;fontStyle=0;aspect=fixed;pointerEvents=1;shape=mxgraph.aws4.ec2_aws_microservice_extractor_for_net;" parent="1" vertex="1">
          <mxGeometry x="502.5" y="173" width="33" height="33" as="geometry" />
        </mxCell>
        <mxCell id="o5u9xkLmA_ON-qVbJsRd-49" value="" style="sketch=0;outlineConnect=0;fontColor=#000000;fillColor=#e3c800;strokeColor=#B09500;dashed=0;verticalLabelPosition=bottom;verticalAlign=top;align=center;html=1;fontSize=12;fontStyle=0;aspect=fixed;pointerEvents=1;shape=mxgraph.aws4.ec2_aws_microservice_extractor_for_net;" parent="1" vertex="1">
          <mxGeometry x="502.5" y="209" width="33" height="33" as="geometry" />
        </mxCell>
        <mxCell id="o5u9xkLmA_ON-qVbJsRd-50" value="RM" style="rounded=0;whiteSpace=wrap;html=1;fillColor=#dae8fc;strokeColor=#6c8ebf;" parent="1" vertex="1">
          <mxGeometry x="719" y="70" width="50" height="91" as="geometry" />
        </mxCell>
        <mxCell id="o5u9xkLmA_ON-qVbJsRd-53" value="Offer Engine&lt;br&gt;Services" style="text;html=1;strokeColor=none;fillColor=none;align=center;verticalAlign=middle;whiteSpace=wrap;rounded=0;fontSize=8;" parent="1" vertex="1">
          <mxGeometry x="489" y="254" width="60" height="30" as="geometry" />
        </mxCell>
        <mxCell id="o5u9xkLmA_ON-qVbJsRd-54" value="" style="endArrow=classic;html=1;rounded=0;" parent="1" edge="1">
          <mxGeometry width="50" height="50" relative="1" as="geometry">
            <mxPoint x="118" y="159" as="sourcePoint" />
            <mxPoint x="158" y="189" as="targetPoint" />
          </mxGeometry>
        </mxCell>
        <mxCell id="o5u9xkLmA_ON-qVbJsRd-57" value="" style="endArrow=classic;html=1;rounded=0;" parent="1" edge="1">
          <mxGeometry width="50" height="50" relative="1" as="geometry">
            <mxPoint x="260" y="169" as="sourcePoint" />
            <mxPoint x="350" y="109" as="targetPoint" />
            <Array as="points">
              <mxPoint x="260" y="109" />
            </Array>
          </mxGeometry>
        </mxCell>
        <mxCell id="o5u9xkLmA_ON-qVbJsRd-58" value="" style="endArrow=classic;html=1;rounded=0;" parent="1" edge="1">
          <mxGeometry width="50" height="50" relative="1" as="geometry">
            <mxPoint x="260" y="249" as="sourcePoint" />
            <mxPoint x="350" y="289" as="targetPoint" />
            <Array as="points">
              <mxPoint x="260" y="289" />
            </Array>
          </mxGeometry>
        </mxCell>
        <mxCell id="o5u9xkLmA_ON-qVbJsRd-61" value="" style="endArrow=classic;html=1;rounded=0;" parent="1" edge="1">
          <mxGeometry width="50" height="50" relative="1" as="geometry">
            <mxPoint x="464" y="85" as="sourcePoint" />
            <mxPoint x="570" y="84" as="targetPoint" />
          </mxGeometry>
        </mxCell>
        <mxCell id="o5u9xkLmA_ON-qVbJsRd-63" value="" style="endArrow=classic;html=1;rounded=0;" parent="1" edge="1">
          <mxGeometry width="50" height="50" relative="1" as="geometry">
            <mxPoint x="465" y="121" as="sourcePoint" />
            <mxPoint x="512" y="139" as="targetPoint" />
            <Array as="points">
              <mxPoint x="512" y="121" />
            </Array>
          </mxGeometry>
        </mxCell>
        <mxCell id="o5u9xkLmA_ON-qVbJsRd-66" value="" style="endArrow=classic;html=1;rounded=0;" parent="1" edge="1">
          <mxGeometry width="50" height="50" relative="1" as="geometry">
            <mxPoint x="716" y="118" as="sourcePoint" />
            <mxPoint x="669" y="118" as="targetPoint" />
          </mxGeometry>
        </mxCell>
        <mxCell id="o5u9xkLmA_ON-qVbJsRd-67" value="" style="endArrow=classic;html=1;rounded=0;" parent="1" edge="1">
          <mxGeometry width="50" height="50" relative="1" as="geometry">
            <mxPoint x="570" y="239" as="sourcePoint" />
            <mxPoint x="616" y="204" as="targetPoint" />
            <Array as="points">
              <mxPoint x="616" y="239" />
            </Array>
          </mxGeometry>
        </mxCell>
        <mxCell id="o5u9xkLmA_ON-qVbJsRd-69" value="" style="endArrow=classic;html=1;rounded=0;" parent="1" edge="1">
          <mxGeometry width="50" height="50" relative="1" as="geometry">
            <mxPoint x="116" y="246" as="sourcePoint" />
            <mxPoint x="158" y="209" as="targetPoint" />
          </mxGeometry>
        </mxCell>
        <mxCell id="o5u9xkLmA_ON-qVbJsRd-75" value="" style="endArrow=none;html=1;rounded=0;" parent="1" edge="1">
          <mxGeometry width="50" height="50" relative="1" as="geometry">
            <mxPoint x="170" y="200.5" as="sourcePoint" />
            <mxPoint x="210" y="201" as="targetPoint" />
          </mxGeometry>
        </mxCell>
        <mxCell id="o5u9xkLmA_ON-qVbJsRd-76" value="" style="verticalLabelPosition=bottom;sketch=0;html=1;fillColor=#282828;strokeColor=none;verticalAlign=top;pointerEvents=1;align=center;shape=mxgraph.cisco_safe.security_icons.iam;" parent="1" vertex="1">
          <mxGeometry x="166" y="95" width="50" height="47" as="geometry" />
        </mxCell>
        <mxCell id="v5AI_yrHXNZjAFn2bGB4-2" value="IAM" style="text;html=1;strokeColor=none;fillColor=none;align=center;verticalAlign=middle;whiteSpace=wrap;rounded=0;fontSize=8;" parent="1" vertex="1">
          <mxGeometry x="161" y="63" width="60" height="30" as="geometry" />
        </mxCell>
        <mxCell id="v5AI_yrHXNZjAFn2bGB4-4" value="" style="endArrow=classic;html=1;rounded=0;" parent="1" edge="1">
          <mxGeometry width="50" height="50" relative="1" as="geometry">
            <mxPoint x="190" y="199" as="sourcePoint" />
            <mxPoint x="190" y="149" as="targetPoint" />
          </mxGeometry>
        </mxCell>
        <mxCell id="nZtmwKzg-fRjrrjrNqXi-1" value="" style="endArrow=classic;html=1;rounded=0;" parent="1" edge="1">
          <mxGeometry width="50" height="50" relative="1" as="geometry">
            <mxPoint x="470" y="339" as="sourcePoint" />
            <mxPoint x="640" y="209" as="targetPoint" />
            <Array as="points">
              <mxPoint x="640" y="339" />
              <mxPoint x="640" y="279" />
            </Array>
          </mxGeometry>
        </mxCell>
        <mxCell id="LD7KzVhKJJ03Kg_h9JVN-1" value="Mobile App" style="text;html=1;strokeColor=none;fillColor=none;align=center;verticalAlign=middle;whiteSpace=wrap;rounded=0;fontSize=8;" vertex="1" parent="1">
          <mxGeometry x="63" y="97" width="60" height="30" as="geometry" />
        </mxCell>
        <mxCell id="LD7KzVhKJJ03Kg_h9JVN-2" value="WebSite (Browser)" style="text;html=1;strokeColor=none;fillColor=none;align=center;verticalAlign=middle;whiteSpace=wrap;rounded=0;fontSize=8;" vertex="1" parent="1">
          <mxGeometry x="60" y="284" width="60" height="30" as="geometry" />
        </mxCell>
        <mxCell id="LD7KzVhKJJ03Kg_h9JVN-4" value="API Gateway" style="text;html=1;strokeColor=none;fillColor=none;align=center;verticalAlign=middle;whiteSpace=wrap;rounded=0;fontSize=8;" vertex="1" parent="1">
          <mxGeometry x="197" y="239" width="60" height="30" as="geometry" />
        </mxCell>
        <mxCell id="LD7KzVhKJJ03Kg_h9JVN-7" value="Get Fares in Points" style="text;html=1;strokeColor=none;fillColor=none;align=center;verticalAlign=middle;whiteSpace=wrap;rounded=0;fontSize=8;" vertex="1" parent="1">
          <mxGeometry x="498" y="96" width="60" height="30" as="geometry" />
        </mxCell>
        <mxCell id="LD7KzVhKJJ03Kg_h9JVN-8" value="Cash Fares" style="text;html=1;strokeColor=none;fillColor=none;align=center;verticalAlign=middle;whiteSpace=wrap;rounded=0;fontSize=8;" vertex="1" parent="1">
          <mxGeometry x="492" y="58" width="60" height="30" as="geometry" />
        </mxCell>
        <mxCell id="LD7KzVhKJJ03Kg_h9JVN-9" value="Past Travel &amp;amp; Future Bookings" style="text;html=1;strokeColor=none;fillColor=none;align=center;verticalAlign=middle;whiteSpace=wrap;rounded=0;fontSize=8;" vertex="1" parent="1">
          <mxGeometry x="644" y="295" width="60" height="30" as="geometry" />
        </mxCell>
        <mxCell id="LD7KzVhKJJ03Kg_h9JVN-10" value="Fares in Cash" style="text;html=1;strokeColor=none;fillColor=none;align=center;verticalAlign=middle;whiteSpace=wrap;rounded=0;fontSize=8;" vertex="1" parent="1">
          <mxGeometry x="568" y="247" width="60" height="30" as="geometry" />
        </mxCell>
        <mxCell id="LD7KzVhKJJ03Kg_h9JVN-11" value="" style="endArrow=classic;html=1;rounded=0;" edge="1" parent="1">
          <mxGeometry width="50" height="50" relative="1" as="geometry">
            <mxPoint x="550" y="294" as="sourcePoint" />
            <mxPoint x="500" y="297" as="targetPoint" />
            <Array as="points">
              <mxPoint x="550" y="324" />
              <mxPoint x="500" y="324" />
            </Array>
          </mxGeometry>
        </mxCell>
        <mxCell id="LD7KzVhKJJ03Kg_h9JVN-12" value="Disc fare Calc using Static Disc Table" style="text;html=1;strokeColor=none;fillColor=none;align=center;verticalAlign=middle;whiteSpace=wrap;rounded=0;fontSize=8;" vertex="1" parent="1">
          <mxGeometry x="558" y="298" width="60" height="30" as="geometry" />
        </mxCell>
      </root>
    </mxGraphModel>
  </diagram>
</mxfile>
